<?xml version="1.0" encoding="utf-8"?>
<!-- Generator: Adobe Illustrator 26.5.0, SVG Export Plug-In . SVG Version: 6.00 Build 0)  -->
<svg version="1.1" id="Capa_1" xmlns="http://www.w3.org/2000/svg" xmlns:xlink="http://www.w3.org/1999/xlink" x="0px" y="0px"
	 viewBox="0 0 224 224" style="enable-background:new 0 0 224 224;" xml:space="preserve">
<style type="text/css">
	.st0{fill:#DE5246;}
</style>
<g>
	<path d="M112,0C50.2,0,0,50.2,0,112c0,61.7,50.2,112,112,112s112-50.2,112-112C224,50.2,173.7,0,112,0z M112,209
		c-53.5,0-97-43.5-97-97c0-53.5,43.5-97,97-97s97,43.5,97,97C209,165.5,165.5,209,112,209z"/>
	<path d="M112,41.8c-38.7,0-70.2,31.5-70.2,70.2s31.5,70.2,70.2,70.2s70.2-31.5,70.2-70.2S150.7,41.8,112,41.8z M112,167.2
		c-30.4,0-55.2-24.8-55.2-55.2S81.6,56.8,112,56.8s55.2,24.8,55.2,55.2S142.4,167.2,112,167.2z"/>
	<path d="M112,79.1c-18.1,0-32.9,14.8-32.9,32.9c0,18.1,14.8,32.9,32.9,32.9c18.1,0,32.9-14.8,32.9-32.9
		C144.9,93.8,130.1,79.1,112,79.1z M112,129.9c-9.9,0-17.9-8-17.9-17.9c0-9.9,8-17.9,17.9-17.9c9.9,0,17.9,8,17.9,17.9
		C129.9,121.9,121.8,129.9,112,129.9z"/>
</g>
<circle class="st0" cx="112" cy="112" r="32.9"/>
</svg>
